<?xml version="1.0" standalone="no"?>
<!DOCTYPE svg PUBLIC "-//W3C//DTD SVG 20010904//EN"
 "http://www.w3.org/TR/2001/REC-SVG-20010904/DTD/svg10.dtd">
<svg version="1.0" xmlns="http://www.w3.org/2000/svg"
 width="512.000000pt" height="512.000000pt" viewBox="0 0 512.000000 512.000000"
 preserveAspectRatio="xMidYMid meet">
<metadata>
Created by potrace 1.11, written by Peter Selinger 2001-2013
</metadata>
<g transform="translate(0.000000,512.000000) scale(0.100000,-0.100000)"
fill="#000000" stroke="none">
<path d="M413 5106 c-189 -46 -363 -226 -402 -414 -8 -37 -11 -667 -11 -2140
0 -2303 -5 -2139 63 -2266 41 -78 145 -182 223 -223 127 -68 -38 -63 2274 -63
2312 0 2147 -5 2274 63 78 41 182 145 223 223 68 127 63 -38 63 2274 0 2312 5
2147 -63 2274 -41 78 -145 182 -223 223 -127 68 39 63 -2274 62 -1649 -1
-2106 -3 -2147 -13z m983 -676 c53 -21 53 -21 54 -357 l0 -312 318 -3 c284 -3
321 -5 345 -21 54 -35 47 -110 -13 -139 -31 -16 -70 -18 -342 -18 l-308 0 0
-313 c0 -301 -1 -314 -20 -335 -38 -41 -92 -40 -130 1 -19 20 -20 36 -20 334
l0 313 -277 0 c-245 0 -282 2 -313 18 -60 29 -67 104 -13 139 24 16 60 18 315
21 l288 3 0 304 c0 325 3 347 49 364 35 13 36 13 67 1z m3031 -685 c31 -7 56
-58 48 -96 -4 -16 -19 -37 -33 -47 -24 -16 -83 -17 -692 -20 -366 -2 -680 0
-699 3 -94 17 -110 139 -21 162 32 8 1359 6 1397 -2z m-3464 -1656 c12 -6 115
-103 228 -216 l205 -204 197 204 c108 113 210 210 227 217 62 26 120 -14 120
-82 0 -41 -3 -45 -210 -252 l-210 -211 210 -210 c199 -200 210 -213 210 -249
0 -20 -4 -45 -10 -55 -13 -26 -64 -45 -97 -36 -18 4 -103 81 -235 212 l-206
205 -198 -202 c-109 -111 -211 -208 -227 -216 -61 -32 -127 10 -127 79 0 39 8
48 212 254 l212 213 -212 213 c-204 206 -212 215 -212 253 1 72 62 114 123 83z
m3486 -154 c32 -33 31 -85 -1 -115 -21 -20 -31 -20 -721 -20 -436 0 -705 4
-717 10 -28 15 -43 67 -27 98 25 53 10 52 754 49 678 -2 693 -2 712 -22z m-36
-666 c48 -13 71 -56 54 -102 -20 -58 -12 -57 -744 -57 -616 0 -671 1 -702 18
-64 32 -56 121 11 141 47 13 1332 14 1381 0z"/>
</g>
</svg>
